<svg xmlns="http://www.w3.org/2000/svg">

<symbol id="abstract" viewBox="0 0 203 195" >
    <title>An Abstract Face</title>
    <g>
        <path d="M116.16,24c-56,0-101.5,43.65-101.5,97.5S60.11,219,116.16,219s101.5-43.65,101.5-97.5S172.22,24,116.16,24ZM48.4,88.78c9-12,25.36-15,36.59-6.61s13.06,24.91,4.09,36.93-25.37,15-36.6,6.62S39.42,100.8,48.4,88.78Zm51.75,112.55C76.8,201.33,57.86,190,57.86,176s18.94-25.35,42.29-25.35S142.45,162,142.45,176,123.51,201.33,100.15,201.33Zm66-75.17c-10.76,18.44-33.27,25.34-50.28,15.43S93.84,108.7,104.6,90.27s33.26-25.34,50.27-15.43S176.94,107.73,166.18,126.16Z" transform="translate(-14.66 -24)"/>
        <path d="M160.64,92.34v.46C160.94,92.52,160.64,92.34,160.64,92.34Z" transform="translate(-14.66 -24)"/>
        <path d="M128.56,167.94c-14.1-3-51.11-8.78-59.54,12l12.67,11.44c8.78,7.93,23.51,7,32.46-2.06L130,173.29A3.09,3.09,0,0,0,128.56,167.94Zm-29,17.81c-8,.57-14.5-2.53-14.49-6.93s6.49-8.42,14.49-9S114,172.35,114,176.75,107.53,185.18,99.53,185.75Z" transform="translate(-14.66 -24)"/>
        <ellipse cx="54.07" cy="80.25" rx="14.5" ry="15.75"/>
        <ellipse cx="120.72" cy="86.48" rx="20.39" ry="20"/>
    </g>
</symbol>

<symbol id="curious" viewBox="0 0 204 204" >
    <title>A Face Showing Burgeoning Curiosity </title>
    <g>
        <path d="M118,32.92a102,102,0,1,0,102,102A102,102,0,0,0,118,32.92ZM78.9,160.28c-27.48,0-49.75-20.48-49.75-45.75S51.42,68.78,78.9,68.78s49.75,20.48,49.75,45.75S106.38,160.28,78.9,160.28ZM148,139.5c-2.9,0-5.25-2.91-5.25-6.5s2.35-6.5,5.25-6.5,5.25,2.91,5.25,6.5S150.94,139.5,148,139.5Zm41.74-21.6c-12.18,10.4-35.14,3.52-51.29-15.37s-19.36-42.65-7.18-53S166.44,46,182.59,64.85,202,107.49,189.78,117.9Z" transform="translate(-16 -32.92)"/>
        <ellipse cx="72.13" cy="87.08" rx="23.25" ry="24.25"/>
        <ellipse cx="145.54" cy="51.71" rx="23.75" ry="23.5"/>
    </g>
</symbol>

<symbol id="maniacal" viewBox="0 0 212.5 197.5" >
    <title>A Maniacal Face</title>
    <g>
        <path d="M116.54,36C57.86,36,10.29,80.24,10.29,134.77s47.57,98.75,106.25,98.75,106.25-44.21,106.25-98.75S175.22,36,116.54,36ZM64.71,164.42c-14.92,0-28-31.91-28-44.75s11.58-44.5,26.5-44.5,27.5,31.66,27.5,44.5S79.62,164.42,64.71,164.42Zm65.5,30.43c-20,0-36.25-28.21-36.25-63s16.23-63,36.25-63,36.25,28.2,36.25,63S150.23,194.85,130.21,194.85Zm63-38.82c-11.88,0-23.5-23.41-23.5-36.11s7.12-39,19-39,24,26.3,24,39S205.09,156,193.22,156Z" transform="translate(-10.29 -36.02)"/>
        <path d="M143,81.73q-.37-.41-.75-.78v6.43H135V76.2l-.75-.25V86.4h-8.76V76.18l-.32.12V87.38h-7.26v3.45h-6.77c-5.34,10.29-8.68,24.86-8.68,41s3.37,30.87,8.76,41.17H117v3.55h7.36v10.51l.32.14v-9.63h8.88v10.34c.25-.07.5-.12.75-.2V176.57h7.36v6.73c.26-.23.51-.47.76-.72v-9.51h6.71v.08c5.43-10.32,8.82-25,8.82-41.3s-3.35-30.77-8.7-41.07H143Zm11.57,55.34c0,8.22-11.17,24.06-25,24.06s-24.95-15.84-24.95-24.06,11.17-28.66,24.95-28.66S154.59,128.84,154.59,137.07Z" transform="translate(-10.29 -36.02)"/>
        <path d="M124.09,136.86c-.21,4.31,4,3.85,5.14,3.91a4.51,4.51,0,0,0,4.92-4.58c.21-4.31-4.06-7.36-5.15-7.41S124.31,132.56,124.09,136.86Z" transform="translate(-10.29 -36.02)"/>
        <circle cx="54.19" cy="77.75" r="12.5"/>
        <circle cx="180.34" cy="79.11" r="11.25"/>
    </g>
</symbol>

<symbol id="shocked" viewBox="0 0 187 184" >
    <title>A Shocked Face</title>
    <g>
        <path d="M121.5,28C69.86,28,28,69.19,28,120s41.86,92,93.5,92S215,170.81,215,120,173.14,28,121.5,28Zm7.95,129.88,9.16-18.07a.92.92,0,0,1,1.55-.14l12,15.91a.57.57,0,0,1-.39.91l-21.72,2.27A.6.6,0,0,1,129.45,157.88Zm-26.33,2.88c-11.38,3-35-36.5-37.18-47S79.64,93.06,90.8,95.08c21.62,3.93,25.55,8.13,27.75,18.68S114.5,157.76,103.12,160.76ZM89.3,90.47a21.79,21.79,0,0,0-7.34,0L63.57,93.51a.68.68,0,0,1-.42-1.16c2.32-2.5,8.63-8.13,10.39-8.55,4.31-1,17.43-3,17.43-3a22.24,22.24,0,0,1,14,3.51l18.76,12C124.09,96.54,98.88,92.17,89.3,90.47ZM142,187.05c-5.19,0-15.74-.8-15.74-5.64S139,172,144.16,172s10.52-.46,10.52,4.38S147.14,187.05,142,187.05Zm32.44-34c-9.47,0-19.92-30.6-19.92-41.31s2.4-15.76,18.81-25c8.48-4.8,22.69.88,22.69,11.6S183.86,153,174.39,153Zm-4-70a16.83,16.83,0,0,0-5.3,1.43L152.32,90.3a.47.47,0,0,1-.48-.73c1.29-2.22,5-7.42,6.19-8.07,2.94-1.58,12.1-5.59,12.1-5.59a16.56,16.56,0,0,1,10.59-.31l15.37,4.68C196.43,80.38,177.58,82.33,170.41,83.05Zm30.66,37.7a.38.38,0,1,1,0-.75.38.38,0,0,1,0,.75Z" transform="translate(-28 -28)"/>
        <path d="M105.33,122c-13.44,9.64-4.61-16.27-10.3-16.27S84.74,113.05,84.74,122,89.35,138.31,95,138.31,112.07,117.2,105.33,122Z" transform="translate(-28 -28)"/>
        <path d="M184.84,122.13c-12.48,2.82-3.81-16.37-8.52-16.37s-8.52,11.58-8.52,16.37a8.6,8.6,0,0,0,8.52,8.67C181,130.8,189.43,121.09,184.84,122.13Z" transform="translate(-28 -28)"/>
    </g>
</symbol>

<svg id="tired" viewBox="0 0 202.25 199.5" >
    <title>A Tired Face</title>
    <g>
        <path d="M120,20.25C64.15,20.25,18.88,64.91,18.88,120S64.15,219.75,120,219.75,221.12,175.09,221.12,120,175.85,20.25,120,20.25Zm-6.74,114.06,9-25.48a4.29,4.29,0,0,1,8.09,0l9,25.48a4.3,4.3,0,0,1-4,5.72h-18A4.3,4.3,0,0,1,113.26,134.31ZM47.75,64.83c0-2.76,3.53-5,7.89-5h41c3,0,4.65-.15,6.3,2l.34,2.1c0,.1.45,1.9.46,2,.1,2.07-3.34,3.73-6.32,3.73L59,73.17C55.91,73.17,47.75,66.76,47.75,64.83ZM77,145.5c-14.77,0-26.75-15.11-26.75-33.75S62.23,78,77,78s26.75,15.11,26.75,33.75S91.77,145.5,77,145.5Zm49.3,36.95c-10.66,0-19.3-2.67-19.3-6s8.64-6,19.3-6,19.29,2.67,19.29,6S137,182.45,126.3,182.45Zm47.9-55.73c-12.43,0-22.5-9.23-22.5-20.61s10.07-20.62,22.5-20.62,22.5,9.23,22.5,20.62S186.62,126.72,174.2,126.72Zm22.17-47.09-43-7.48c-2.87,0-5.2-1.57-5.2-3.5V66.87c0-1.94,2.33-3.5,5.2-3.5h41.71c2.87,0,5.21,1.56,5.21,3.5v1.78C200.26,70.58,199.24,79.63,196.37,79.63Z" transform="translate(-18.88 -20.25)"/>
        <ellipse cx="56.87" cy="87.35" rx="8.91" ry="13.1"/>
        <ellipse cx="155.32" cy="85.86" rx="8.25" ry="11.25"/>
    </g>
</svg>



</svg>