<svg id="Layer_1" data-name="Layer 1" xmlns="http://www.w3.org/2000/svg" viewBox="0 0 203 195">
  <g>
    <path d="M116.16,24c-56,0-101.5,43.65-101.5,97.5S60.11,219,116.16,219s101.5-43.65,101.5-97.5S172.22,24,116.16,24ZM48.4,88.78c9-12,25.36-15,36.59-6.61s13.06,24.91,4.09,36.93-25.37,15-36.6,6.62S39.42,100.8,48.4,88.78Zm51.75,112.55C76.8,201.33,57.86,190,57.86,176s18.94-25.35,42.29-25.35S142.45,162,142.45,176,123.51,201.33,100.15,201.33Zm66-75.17c-10.76,18.44-33.27,25.34-50.28,15.43S93.84,108.7,104.6,90.27s33.26-25.34,50.27-15.43S176.94,107.73,166.18,126.16Z" transform="translate(-14.66 -24)"/>
    <path d="M160.64,92.34v.46C160.94,92.52,160.64,92.34,160.64,92.34Z" transform="translate(-14.66 -24)"/>
    <path d="M128.56,167.94c-14.1-3-51.11-8.78-59.54,12l12.67,11.44c8.78,7.93,23.51,7,32.46-2.06L130,173.29A3.09,3.09,0,0,0,128.56,167.94Zm-29,17.81c-8,.57-14.5-2.53-14.49-6.93s6.49-8.42,14.49-9S114,172.35,114,176.75,107.53,185.18,99.53,185.75Z" transform="translate(-14.66 -24)"/>
    <ellipse cx="54.07" cy="80.25" rx="14.5" ry="15.75"/>
    <ellipse cx="120.72" cy="86.48" rx="20.39" ry="20"/>
  </g>
</svg>
