<svg id="Layer_1" data-name="Layer 1" xmlns="http://www.w3.org/2000/svg" viewBox="0 0 204 204">
  <g>
    <path d="M118,32.92a102,102,0,1,0,102,102A102,102,0,0,0,118,32.92ZM78.9,160.28c-27.48,0-49.75-20.48-49.75-45.75S51.42,68.78,78.9,68.78s49.75,20.48,49.75,45.75S106.38,160.28,78.9,160.28ZM148,139.5c-2.9,0-5.25-2.91-5.25-6.5s2.35-6.5,5.25-6.5,5.25,2.91,5.25,6.5S150.94,139.5,148,139.5Zm41.74-21.6c-12.18,10.4-35.14,3.52-51.29-15.37s-19.36-42.65-7.18-53S166.44,46,182.59,64.85,202,107.49,189.78,117.9Z" transform="translate(-16 -32.92)"/>
    <ellipse cx="72.13" cy="87.08" rx="23.25" ry="24.25"/>
    <ellipse cx="145.54" cy="51.71" rx="23.75" ry="23.5"/>
  </g>
</svg>
