<svg id="Layer_1" data-name="Layer 1" xmlns="http://www.w3.org/2000/svg" viewBox="0 0 212.5 197.5">
  <g>
    <path d="M116.54,36C57.86,36,10.29,80.24,10.29,134.77s47.57,98.75,106.25,98.75,106.25-44.21,106.25-98.75S175.22,36,116.54,36ZM64.71,164.42c-14.92,0-28-31.91-28-44.75s11.58-44.5,26.5-44.5,27.5,31.66,27.5,44.5S79.62,164.42,64.71,164.42Zm65.5,30.43c-20,0-36.25-28.21-36.25-63s16.23-63,36.25-63,36.25,28.2,36.25,63S150.23,194.85,130.21,194.85Zm63-38.82c-11.88,0-23.5-23.41-23.5-36.11s7.12-39,19-39,24,26.3,24,39S205.09,156,193.22,156Z" transform="translate(-10.29 -36.02)"/>
    <path d="M143,81.73q-.37-.41-.75-.78v6.43H135V76.2l-.75-.25V86.4h-8.76V76.18l-.32.12V87.38h-7.26v3.45h-6.77c-5.34,10.29-8.68,24.86-8.68,41s3.37,30.87,8.76,41.17H117v3.55h7.36v10.51l.32.14v-9.63h8.88v10.34c.25-.07.5-.12.75-.2V176.57h7.36v6.73c.26-.23.51-.47.76-.72v-9.51h6.71v.08c5.43-10.32,8.82-25,8.82-41.3s-3.35-30.77-8.7-41.07H143Zm11.57,55.34c0,8.22-11.17,24.06-25,24.06s-24.95-15.84-24.95-24.06,11.17-28.66,24.95-28.66S154.59,128.84,154.59,137.07Z" transform="translate(-10.29 -36.02)"/>
    <path d="M124.09,136.86c-.21,4.31,4,3.85,5.14,3.91a4.51,4.51,0,0,0,4.92-4.58c.21-4.31-4.06-7.36-5.15-7.41S124.31,132.56,124.09,136.86Z" transform="translate(-10.29 -36.02)"/>
    <circle cx="54.19" cy="77.75" r="12.5"/>
    <circle cx="180.34" cy="79.11" r="11.25"/>
  </g>
</svg>
