<svg id="Layer_1" data-name="Layer 1" xmlns="http://www.w3.org/2000/svg" viewBox="0 0 202.25 199.5">
  <g>
    <path d="M120,20.25C64.15,20.25,18.88,64.91,18.88,120S64.15,219.75,120,219.75,221.12,175.09,221.12,120,175.85,20.25,120,20.25Zm-6.74,114.06,9-25.48a4.29,4.29,0,0,1,8.09,0l9,25.48a4.3,4.3,0,0,1-4,5.72h-18A4.3,4.3,0,0,1,113.26,134.31ZM47.75,64.83c0-2.76,3.53-5,7.89-5h41c3,0,4.65-.15,6.3,2l.34,2.1c0,.1.45,1.9.46,2,.1,2.07-3.34,3.73-6.32,3.73L59,73.17C55.91,73.17,47.75,66.76,47.75,64.83ZM77,145.5c-14.77,0-26.75-15.11-26.75-33.75S62.23,78,77,78s26.75,15.11,26.75,33.75S91.77,145.5,77,145.5Zm49.3,36.95c-10.66,0-19.3-2.67-19.3-6s8.64-6,19.3-6,19.29,2.67,19.29,6S137,182.45,126.3,182.45Zm47.9-55.73c-12.43,0-22.5-9.23-22.5-20.61s10.07-20.62,22.5-20.62,22.5,9.23,22.5,20.62S186.62,126.72,174.2,126.72Zm22.17-47.09-43-7.48c-2.87,0-5.2-1.57-5.2-3.5V66.87c0-1.94,2.33-3.5,5.2-3.5h41.71c2.87,0,5.21,1.56,5.21,3.5v1.78C200.26,70.58,199.24,79.63,196.37,79.63Z" transform="translate(-18.88 -20.25)"/>
    <ellipse cx="56.87" cy="87.35" rx="8.91" ry="13.1"/>
    <ellipse cx="155.32" cy="85.86" rx="8.25" ry="11.25"/>
  </g>
</svg>
